<svg xmlns="http://www.w3.org/2000/svg" width="1120" height="720" viewBox="0 0 1120 720" fill="none" role="img" aria-label="Hero background">
  <defs>
    <linearGradient id="g" x1="0" y1="0" x2="1120" y2="720" gradientUnits="userSpaceOnUse">
      <stop stop-color="#0B2B4F"/>
      <stop offset="1" stop-color="#073058"/>
    </linearGradient>
    <radialGradient id="r1" cx="0" cy="0" r="1" gradientUnits="userSpaceOnUse" gradientTransform="translate(220 150) rotate(35) scale(520 320)">
      <stop stop-color="#D6A042" stop-opacity=".35"/>
      <stop offset="1" stop-color="#D6A042" stop-opacity="0"/>
    </radialGradient>
    <radialGradient id="r2" cx="0" cy="0" r="1" gradientUnits="userSpaceOnUse" gradientTransform="translate(920 320) rotate(35) scale(520 320)">
      <stop stop-color="#FFFFFF" stop-opacity=".14"/>
      <stop offset="1" stop-color="#FFFFFF" stop-opacity="0"/>
    </radialGradient>
  </defs>
  <rect width="1120" height="720" rx="28" fill="url(#g)"/>
  <rect width="1120" height="720" rx="28" fill="url(#r1)"/>
  <rect width="1120" height="720" rx="28" fill="url(#r2)"/>
  <g opacity=".35" stroke="rgba(255,255,255,.45)">
    <path d="M80 610c130-120 240-170 370-190 160-25 300 8 520-80" stroke-width="2"/>
    <path d="M120 640c150-130 270-190 420-210 170-22 320 18 520-90" stroke-width="2"/>
  </g>
  <g fill="rgba(255,255,255,.9)">
    <circle cx="180" cy="210" r="3"/>
    <circle cx="230" cy="250" r="2"/>
    <circle cx="930" cy="220" r="3"/>
    <circle cx="880" cy="280" r="2"/>
  </g>
</svg>

