<svg xmlns="http://www.w3.org/2000/svg" width="820" height="560" viewBox="0 0 820 560" fill="none" role="img" aria-label="Hero card">
  <defs>
    <linearGradient id="card" x1="0" y1="0" x2="820" y2="560" gradientUnits="userSpaceOnUse">
      <stop stop-color="rgba(255,255,255,.12)"/>
      <stop offset="1" stop-color="rgba(255,255,255,.04)"/>
    </linearGradient>
  </defs>
  <rect x="18" y="18" width="784" height="524" rx="26" fill="url(#card)" stroke="rgba(255,255,255,.22)" stroke-width="2"/>
  <rect x="54" y="64" width="360" height="18" rx="9" fill="rgba(214,160,66,.92)"/>
  <rect x="54" y="100" width="520" height="12" rx="6" fill="rgba(255,255,255,.55)"/>
  <rect x="54" y="128" width="460" height="12" rx="6" fill="rgba(255,255,255,.42)"/>
  <g>
    <rect x="54" y="192" width="712" height="120" rx="18" fill="rgba(0,0,0,.18)" stroke="rgba(255,255,255,.12)"/>
    <rect x="84" y="222" width="280" height="12" rx="6" fill="rgba(255,255,255,.55)"/>
    <rect x="84" y="248" width="220" height="12" rx="6" fill="rgba(255,255,255,.42)"/>
    <rect x="84" y="274" width="190" height="12" rx="6" fill="rgba(255,255,255,.35)"/>
    <circle cx="640" cy="252" r="36" fill="rgba(214,160,66,.85)"/>
  </g>
  <g opacity=".85">
    <rect x="54" y="348" width="232" height="144" rx="18" fill="rgba(255,255,255,.08)" stroke="rgba(255,255,255,.12)"/>
    <rect x="306" y="348" width="232" height="144" rx="18" fill="rgba(255,255,255,.08)" stroke="rgba(255,255,255,.12)"/>
    <rect x="558" y="348" width="208" height="144" rx="18" fill="rgba(255,255,255,.08)" stroke="rgba(255,255,255,.12)"/>
  </g>
</svg>

