<svg xmlns="http://www.w3.org/2000/svg" width="120" height="44" viewBox="0 0 120 44" fill="none" role="img" aria-label="OG">
  <path d="M38 32c-9.4 0-17-7.6-17-17S28.6-2 38-2s17 7.6 17 17-7.6 17-17 17Zm0-7.2c5.4 0 9.8-4.4 9.8-9.8S43.4 5.2 38 5.2s-9.8 4.4-9.8 9.8 4.4 9.8 9.8 9.8Z" fill="#0B2B4F"/>
  <path d="M83.5 36c-11 0-20-9-20-20s9-20 20-20c5.8 0 11.1 2.4 14.9 6.3l-5.2 4.6c-2.5-2.5-5.9-4-9.7-4-7.6 0-13.8 6.2-13.8 13.8s6.2 13.8 13.8 13.8c4.7 0 8.9-2.3 11.4-5.9h-11v-6.1h18.5c.3 1.2.5 2.4.5 3.7 0 11-9 20-20 20Z" fill="#0B2B4F"/>
  <path d="M6 42h108" stroke="rgba(11,43,79,.22)" stroke-width="2" stroke-linecap="round"/>
</svg>

